<mxfile host="app.diagrams.net" agent="Mozilla/5.0 (X11; Linux x86_64) AppleWebKit/537.36 (KHTML, like Gecko) Chrome/134.0.0.0 YaBrowser/25.4.0.0 Safari/537.36" version="27.0.9">
  <diagram name="Страница — 1" id="dn_G4le_qqBFXfAzpgHw">
    <mxGraphModel dx="1360" dy="832" grid="1" gridSize="10" guides="1" tooltips="1" connect="1" arrows="1" fold="1" page="1" pageScale="1" pageWidth="827" pageHeight="1169" math="0" shadow="0">
      <root>
        <mxCell id="0" />
        <mxCell id="1" parent="0" />
        <mxCell id="hsrrmHXfO2bKglGPaymN-11" style="edgeStyle=none;curved=1;rounded=0;orthogonalLoop=1;jettySize=auto;html=1;exitX=0.5;exitY=1;exitDx=0;exitDy=0;entryX=0.5;entryY=0;entryDx=0;entryDy=0;fontSize=12;startSize=8;endSize=8;fontFamily=Times New Roman;" edge="1" parent="1" source="hsrrmHXfO2bKglGPaymN-1" target="hsrrmHXfO2bKglGPaymN-2">
          <mxGeometry relative="1" as="geometry" />
        </mxCell>
        <mxCell id="hsrrmHXfO2bKglGPaymN-1" value="Начало" style="rounded=1;whiteSpace=wrap;html=1;fontFamily=Times New Roman;" vertex="1" parent="1">
          <mxGeometry x="160" y="160" width="80" height="20" as="geometry" />
        </mxCell>
        <mxCell id="hsrrmHXfO2bKglGPaymN-12" style="edgeStyle=none;curved=1;rounded=0;orthogonalLoop=1;jettySize=auto;html=1;exitX=0.5;exitY=1;exitDx=0;exitDy=0;entryX=0.5;entryY=0;entryDx=0;entryDy=0;fontSize=12;startSize=8;endSize=8;fontFamily=Times New Roman;" edge="1" parent="1" source="hsrrmHXfO2bKglGPaymN-2" target="hsrrmHXfO2bKglGPaymN-3">
          <mxGeometry relative="1" as="geometry" />
        </mxCell>
        <mxCell id="hsrrmHXfO2bKglGPaymN-2" value="Проверка, установка модуля" style="rounded=0;whiteSpace=wrap;html=1;fontFamily=Times New Roman;" vertex="1" parent="1">
          <mxGeometry x="140" y="200" width="120" height="40" as="geometry" />
        </mxCell>
        <mxCell id="hsrrmHXfO2bKglGPaymN-13" style="edgeStyle=none;curved=1;rounded=0;orthogonalLoop=1;jettySize=auto;html=1;exitX=0.5;exitY=1;exitDx=0;exitDy=0;entryX=0.5;entryY=0;entryDx=0;entryDy=0;fontSize=12;startSize=8;endSize=8;fontFamily=Times New Roman;" edge="1" parent="1" source="hsrrmHXfO2bKglGPaymN-3" target="hsrrmHXfO2bKglGPaymN-4">
          <mxGeometry relative="1" as="geometry" />
        </mxCell>
        <mxCell id="hsrrmHXfO2bKglGPaymN-3" value="Выбор vCenter, типовой конфигурации" style="rounded=0;whiteSpace=wrap;html=1;fontFamily=Times New Roman;" vertex="1" parent="1">
          <mxGeometry x="140" y="260" width="120" height="40" as="geometry" />
        </mxCell>
        <mxCell id="hsrrmHXfO2bKglGPaymN-14" style="edgeStyle=none;curved=1;rounded=0;orthogonalLoop=1;jettySize=auto;html=1;exitX=0.5;exitY=1;exitDx=0;exitDy=0;entryX=0.5;entryY=0;entryDx=0;entryDy=0;fontSize=12;startSize=8;endSize=8;fontFamily=Times New Roman;" edge="1" parent="1" source="hsrrmHXfO2bKglGPaymN-4" target="hsrrmHXfO2bKglGPaymN-5">
          <mxGeometry relative="1" as="geometry" />
        </mxCell>
        <mxCell id="hsrrmHXfO2bKglGPaymN-4" value="Подключение к vCenter, аутентификация" style="rounded=0;whiteSpace=wrap;html=1;fontFamily=Times New Roman;" vertex="1" parent="1">
          <mxGeometry x="140" y="320" width="120" height="40" as="geometry" />
        </mxCell>
        <mxCell id="hsrrmHXfO2bKglGPaymN-15" style="edgeStyle=none;curved=1;rounded=0;orthogonalLoop=1;jettySize=auto;html=1;exitX=0.5;exitY=1;exitDx=0;exitDy=0;entryX=0.5;entryY=0;entryDx=0;entryDy=0;fontSize=12;startSize=8;endSize=8;fontFamily=Times New Roman;" edge="1" parent="1" source="hsrrmHXfO2bKglGPaymN-5" target="hsrrmHXfO2bKglGPaymN-6">
          <mxGeometry relative="1" as="geometry" />
        </mxCell>
        <mxCell id="hsrrmHXfO2bKglGPaymN-5" value="Ввод доменного имени хоста" style="rounded=0;whiteSpace=wrap;html=1;fontFamily=Times New Roman;" vertex="1" parent="1">
          <mxGeometry x="140" y="380" width="120" height="40" as="geometry" />
        </mxCell>
        <mxCell id="hsrrmHXfO2bKglGPaymN-16" style="edgeStyle=none;curved=1;rounded=0;orthogonalLoop=1;jettySize=auto;html=1;exitX=0.5;exitY=1;exitDx=0;exitDy=0;entryX=0.5;entryY=0;entryDx=0;entryDy=0;fontSize=12;startSize=8;endSize=8;fontFamily=Times New Roman;" edge="1" parent="1" source="hsrrmHXfO2bKglGPaymN-6" target="hsrrmHXfO2bKglGPaymN-7">
          <mxGeometry relative="1" as="geometry" />
        </mxCell>
        <mxCell id="hsrrmHXfO2bKglGPaymN-20" style="edgeStyle=orthogonalEdgeStyle;rounded=0;orthogonalLoop=1;jettySize=auto;html=1;exitX=1;exitY=0.5;exitDx=0;exitDy=0;entryX=1;entryY=0.5;entryDx=0;entryDy=0;fontSize=12;startSize=8;endSize=8;fontFamily=Times New Roman;" edge="1" parent="1" source="hsrrmHXfO2bKglGPaymN-6" target="hsrrmHXfO2bKglGPaymN-9">
          <mxGeometry relative="1" as="geometry">
            <Array as="points">
              <mxPoint x="350" y="480" />
              <mxPoint x="350" y="723" />
            </Array>
          </mxGeometry>
        </mxCell>
        <mxCell id="hsrrmHXfO2bKglGPaymN-6" value="Хост в режиме обслуживания?" style="rhombus;whiteSpace=wrap;html=1;fontFamily=Times New Roman;" vertex="1" parent="1">
          <mxGeometry x="130" y="440" width="140" height="80" as="geometry" />
        </mxCell>
        <mxCell id="hsrrmHXfO2bKglGPaymN-17" style="edgeStyle=none;curved=1;rounded=0;orthogonalLoop=1;jettySize=auto;html=1;exitX=0.5;exitY=1;exitDx=0;exitDy=0;entryX=0.5;entryY=0;entryDx=0;entryDy=0;fontSize=12;startSize=8;endSize=8;fontFamily=Times New Roman;" edge="1" parent="1" source="hsrrmHXfO2bKglGPaymN-7" target="hsrrmHXfO2bKglGPaymN-8">
          <mxGeometry relative="1" as="geometry" />
        </mxCell>
        <mxCell id="hsrrmHXfO2bKglGPaymN-7" value="Выбор функции" style="rounded=0;whiteSpace=wrap;html=1;fontFamily=Times New Roman;" vertex="1" parent="1">
          <mxGeometry x="150" y="540" width="100" height="45" as="geometry" />
        </mxCell>
        <mxCell id="hsrrmHXfO2bKglGPaymN-18" style="edgeStyle=none;curved=1;rounded=0;orthogonalLoop=1;jettySize=auto;html=1;exitX=0.5;exitY=1;exitDx=0;exitDy=0;entryX=0.5;entryY=0;entryDx=0;entryDy=0;fontSize=12;startSize=8;endSize=8;fontFamily=Times New Roman;" edge="1" parent="1" source="hsrrmHXfO2bKglGPaymN-8" target="hsrrmHXfO2bKglGPaymN-9">
          <mxGeometry relative="1" as="geometry" />
        </mxCell>
        <mxCell id="hsrrmHXfO2bKglGPaymN-8" value="Требуются дополнительные действия?" style="rhombus;whiteSpace=wrap;html=1;fontFamily=Times New Roman;" vertex="1" parent="1">
          <mxGeometry x="130" y="600" width="140" height="80" as="geometry" />
        </mxCell>
        <mxCell id="hsrrmHXfO2bKglGPaymN-19" style="edgeStyle=none;curved=1;rounded=0;orthogonalLoop=1;jettySize=auto;html=1;exitX=0.5;exitY=1;exitDx=0;exitDy=0;entryX=0.5;entryY=0;entryDx=0;entryDy=0;fontSize=12;startSize=8;endSize=8;fontFamily=Times New Roman;" edge="1" parent="1" source="hsrrmHXfO2bKglGPaymN-9" target="hsrrmHXfO2bKglGPaymN-10">
          <mxGeometry relative="1" as="geometry" />
        </mxCell>
        <mxCell id="hsrrmHXfO2bKglGPaymN-9" value="Отключение" style="rounded=0;whiteSpace=wrap;html=1;fontFamily=Times New Roman;" vertex="1" parent="1">
          <mxGeometry x="150" y="700" width="100" height="45" as="geometry" />
        </mxCell>
        <mxCell id="hsrrmHXfO2bKglGPaymN-10" value="Конец" style="rounded=1;whiteSpace=wrap;html=1;fontFamily=Times New Roman;" vertex="1" parent="1">
          <mxGeometry x="160" y="760" width="80" height="20" as="geometry" />
        </mxCell>
        <mxCell id="hsrrmHXfO2bKglGPaymN-21" value="" style="endArrow=classic;html=1;rounded=0;fontSize=12;startSize=8;endSize=8;entryX=1;entryY=0.5;entryDx=0;entryDy=0;edgeStyle=orthogonalEdgeStyle;fontFamily=Times New Roman;" edge="1" parent="1" target="hsrrmHXfO2bKglGPaymN-7">
          <mxGeometry width="50" height="50" relative="1" as="geometry">
            <mxPoint x="270" y="640" as="sourcePoint" />
            <mxPoint x="320" y="590" as="targetPoint" />
            <Array as="points">
              <mxPoint x="270" y="641" />
              <mxPoint x="310" y="641" />
              <mxPoint x="310" y="563" />
            </Array>
          </mxGeometry>
        </mxCell>
        <mxCell id="hsrrmHXfO2bKglGPaymN-22" value="Да" style="text;html=1;align=center;verticalAlign=middle;whiteSpace=wrap;rounded=0;fontFamily=Times New Roman;" vertex="1" parent="1">
          <mxGeometry x="190" y="510" width="60" height="30" as="geometry" />
        </mxCell>
        <mxCell id="hsrrmHXfO2bKglGPaymN-23" value="Нет" style="text;html=1;align=center;verticalAlign=middle;whiteSpace=wrap;rounded=0;fontFamily=Times New Roman;" vertex="1" parent="1">
          <mxGeometry x="260" y="450" width="60" height="30" as="geometry" />
        </mxCell>
        <mxCell id="hsrrmHXfO2bKglGPaymN-24" value="Да" style="text;html=1;align=center;verticalAlign=middle;whiteSpace=wrap;rounded=0;fontFamily=Times New Roman;" vertex="1" parent="1">
          <mxGeometry x="260" y="610" width="60" height="30" as="geometry" />
        </mxCell>
        <mxCell id="hsrrmHXfO2bKglGPaymN-25" value="Нет" style="text;html=1;align=center;verticalAlign=middle;whiteSpace=wrap;rounded=0;fontFamily=Times New Roman;" vertex="1" parent="1">
          <mxGeometry x="200" y="670" width="60" height="30" as="geometry" />
        </mxCell>
      </root>
    </mxGraphModel>
  </diagram>
</mxfile>
